# xmcd
#
# Track frame offsets: 
#        150
#        16119
#        28698
#        42172
#        56236
#        69910
#        84398
#        98058
#        111847
#        125885
#        139034
#        152920
#        166574
#        179681
#        193608
#        207045
#        220578
#        233741
#        247600
#        260888
#        274498
#        287738
#        299744
#        312863
#        326570
#
# Disc length: 4554 seconds
#
# Revision: 0
# Processed by: cddbd v1.5.2PL0 Copyright (c) Steve Scherf et al.
# Submitted via: ExactAudioCopy v0.99pb5
#
DISCID=7011c819
DTITLE=Barbara Demick - Nothing to Envy [9 of 10]
DYEAR=2010
DGENRE=Audiobook
TTITLE0=09-01
TTITLE1=09-02
TTITLE2=09-03
TTITLE3=09-04
TTITLE4=09-05
TTITLE5=09-06
TTITLE6=09-07
TTITLE7=09-08
TTITLE8=09-09
TTITLE9=09-10
TTITLE10=09-11
TTITLE11=09-12
TTITLE12=09-13
TTITLE13=09-14
TTITLE14=09-15
TTITLE15=09-16
TTITLE16=09-17
TTITLE17=09-18
TTITLE18=09-19
TTITLE19=09-20
TTITLE20=09-21
TTITLE21=09-22
TTITLE22=09-23
TTITLE23=09-24
TTITLE24=09-25
EXTD=
EXTT0=
EXTT1=
EXTT2=
EXTT3=
EXTT4=
EXTT5=
EXTT6=
EXTT7=
EXTT8=
EXTT9=
EXTT10=
EXTT11=
EXTT12=
EXTT13=
EXTT14=
EXTT15=
EXTT16=
EXTT17=
EXTT18=
EXTT19=
EXTT20=
EXTT21=
EXTT22=
EXTT23=
EXTT24=
PLAYORDER=
